<svg width="50" height="50" viewBox="0 0 50 50" fill="none" xmlns="http://www.w3.org/2000/svg">
<rect width="50" height="50" rx="25" fill="#3F46F9"/>
<path d="M21 29L29 21" stroke="white" stroke-width="2" stroke-linecap="round" stroke-linejoin="round"/>
<path d="M21.6667 22.3333C22.0349 22.3333 22.3333 22.0349 22.3333 21.6667C22.3333 21.2985 22.0349 21 21.6667 21C21.2985 21 21 21.2985 21 21.6667C21 22.0349 21.2985 22.3333 21.6667 22.3333Z" fill="white" stroke="white" stroke-width="2" stroke-linecap="round" stroke-linejoin="round"/>
<path d="M28.3334 29C28.7015 29 29 28.7015 29 28.3333C29 27.9651 28.7015 27.6667 28.3334 27.6667C27.9652 27.6667 27.6667 27.9651 27.6667 28.3333C27.6667 28.7015 27.9652 29 28.3334 29Z" fill="white" stroke="white" stroke-width="2" stroke-linecap="round" stroke-linejoin="round"/>
<path d="M13 25C13 26.5759 13.3104 28.1363 13.9134 29.5922C14.5165 31.0481 15.4004 32.371 16.5147 33.4853C17.629 34.5996 18.9519 35.4835 20.4078 36.0866C21.8637 36.6896 23.4241 37 25 37C26.5759 37 28.1363 36.6896 29.5922 36.0866C31.0481 35.4835 32.371 34.5996 33.4853 33.4853C34.5996 32.371 35.4835 31.0481 36.0866 29.5922C36.6896 28.1363 37 26.5759 37 25C37 23.4241 36.6896 21.8637 36.0866 20.4078C35.4835 18.9519 34.5996 17.629 33.4853 16.5147C32.371 15.4004 31.0481 14.5165 29.5922 13.9134C28.1363 13.3104 26.5759 13 25 13C23.4241 13 21.8637 13.3104 20.4078 13.9134C18.9519 14.5165 17.629 15.4004 16.5147 16.5147C15.4004 17.629 14.5165 18.9519 13.9134 20.4078C13.3104 21.8637 13 23.4241 13 25Z" stroke="white" stroke-width="2" stroke-linecap="round" stroke-linejoin="round"/>
</svg>
