<svg width="28" height="28" viewBox="0 0 28 28" fill="none" xmlns="http://www.w3.org/2000/svg">
<path d="M10.2083 11.6667C10.2083 10.6611 10.6078 9.69663 11.3189 8.98555C12.0299 8.27448 12.9944 7.875 14 7.875C15.0056 7.875 15.97 8.27448 16.6811 8.98555C17.3922 9.69663 17.7916 10.6611 17.7916 11.6667C17.7916 12.6723 17.3922 13.6367 16.6811 14.3478C15.97 15.0589 15.0056 15.4583 14 15.4583C12.9944 15.4583 12.0299 15.0589 11.3189 14.3478C10.6078 13.6367 10.2083 12.6723 10.2083 11.6667Z" fill="white"/>
<path fill-rule="evenodd" clip-rule="evenodd" d="M4.40303 10.3565C4.59709 8.01121 5.66562 5.82455 7.39665 4.23032C9.12768 2.63608 11.3947 1.75077 13.748 1.75H14.252C16.6053 1.75077 18.8724 2.63608 20.6034 4.23032C22.3344 5.82455 23.403 8.01121 23.597 10.3565C23.8124 12.975 23.004 15.5749 21.3419 17.6097L15.75 24.4487C15.5381 24.7081 15.2711 24.9171 14.9685 25.0607C14.6658 25.2042 14.335 25.2787 14 25.2787C13.665 25.2787 13.3343 25.2042 13.0316 25.0607C12.7289 24.9171 12.462 24.7081 12.25 24.4487L6.65936 17.6097C4.99681 15.5751 4.188 12.9751 4.40303 10.3565ZM14 6.125C12.5303 6.125 11.1207 6.70885 10.0815 7.74812C9.04221 8.78738 8.45836 10.1969 8.45836 11.6667C8.45836 13.1364 9.04221 14.546 10.0815 15.5852C11.1207 16.6245 12.5303 17.2083 14 17.2083C15.4698 17.2083 16.8793 16.6245 17.9186 15.5852C18.9578 14.546 19.5417 13.1364 19.5417 11.6667C19.5417 10.1969 18.9578 8.78738 17.9186 7.74812C16.8793 6.70885 15.4698 6.125 14 6.125Z" fill="white"/>
</svg>
