<svg width="50" height="50" viewBox="0 0 50 50" fill="none" xmlns="http://www.w3.org/2000/svg">
<rect width="50" height="50" rx="25" fill="#3F46F9"/>
<path d="M21.3333 34.625V26.375C21.3333 26.0103 21.2046 25.6606 20.9754 25.4027C20.7461 25.1449 20.4353 25 20.1111 25H15.2222C14.8981 25 14.5872 25.1449 14.358 25.4027C14.1288 25.6606 14 26.0103 14 26.375V34.625C14 34.9897 14.1288 35.3394 14.358 35.5973C14.5872 35.8551 14.8981 36 15.2222 36M21.3333 34.625C21.3333 34.9897 21.2046 35.3394 20.9754 35.5973C20.7461 35.8551 20.4353 36 20.1111 36H15.2222M21.3333 34.625C21.3333 34.9897 21.4621 35.3394 21.6913 35.5973C21.9205 35.8551 22.2314 36 22.5556 36H27.4444C27.7686 36 28.0795 35.8551 28.3087 35.5973C28.5379 35.3394 28.6667 34.9897 28.6667 34.625M21.3333 34.625V20.875C21.3333 20.5103 21.4621 20.1606 21.6913 19.9027C21.9205 19.6449 22.2314 19.5 22.5556 19.5H27.4444C27.7686 19.5 28.0795 19.6449 28.3087 19.9027C28.5379 20.1606 28.6667 20.5103 28.6667 20.875V34.625M15.2222 36H32.3333M28.6667 34.625C28.6667 34.9897 28.7954 35.3394 29.0246 35.5973C29.2539 35.8551 29.5647 36 29.8889 36H34.7778C35.1019 36 35.4128 35.8551 35.642 35.5973C35.8712 35.3394 36 34.9897 36 34.625V15.375C36 15.0103 35.8712 14.6606 35.642 14.4027C35.4128 14.1449 35.1019 14 34.7778 14H29.8889C29.5647 14 29.2539 14.1449 29.0246 14.4027C28.7954 14.6606 28.6667 15.0103 28.6667 15.375V34.625Z" stroke="white" stroke-width="2" stroke-linecap="round" stroke-linejoin="round"/>
</svg>
