<svg width="50" height="50" viewBox="0 0 50 50" fill="none" xmlns="http://www.w3.org/2000/svg">
<rect width="50" height="50" rx="25" fill="#3F46F9"/>
<path d="M27.6667 19.6666H25.6667V26.3333L31.3733 29.7199L32.3333 28.1066L27.6667 25.3333V19.6666ZM27 13C23.8174 13 20.7652 14.2643 18.5147 16.5147C16.2643 18.7651 15 21.8174 15 25H11L16.28 30.3733L21.6667 25H17.6667C17.6667 22.5246 18.65 20.1507 20.4003 18.4003C22.1507 16.65 24.5246 15.6667 27 15.6667C29.4754 15.6667 31.8493 16.65 33.5997 18.4003C35.35 20.1507 36.3333 22.5246 36.3333 25C36.3333 27.4753 35.35 29.8493 33.5997 31.5996C31.8493 33.3499 29.4754 34.3333 27 34.3333C24.4267 34.3333 22.0933 33.2799 20.4133 31.5866L18.52 33.4799C19.6288 34.6005 20.9498 35.4889 22.4058 36.0933C23.8618 36.6977 25.4236 37.0059 27 36.9999C30.1826 36.9999 33.2348 35.7356 35.4853 33.4852C37.7357 31.2348 39 28.1825 39 25C39 21.8174 37.7357 18.7651 35.4853 16.5147C33.2348 14.2643 30.1826 13 27 13Z" fill="white"/>
</svg>
