<svg width="50" height="50" viewBox="0 0 50 50" fill="none" xmlns="http://www.w3.org/2000/svg">
<rect width="50" height="50" rx="25" fill="#3F46F9"/>
<path d="M31.8708 17.7042L33.9108 19.7442L26.9975 26.6575L22.3367 21.9967C22.2056 21.8653 22.0499 21.7611 21.8786 21.6901C21.7072 21.619 21.5235 21.5824 21.3379 21.5824C21.1524 21.5824 20.9687 21.619 20.7973 21.6901C20.6259 21.7611 20.4702 21.8653 20.3392 21.9967L11.8392 30.5108C11.708 30.642 11.604 30.7977 11.533 30.9691C11.462 31.1404 11.4255 31.3241 11.4255 31.5096C11.4255 31.6951 11.462 31.8787 11.533 32.0501C11.604 32.2215 11.708 32.3772 11.8392 32.5083C11.9703 32.6395 12.126 32.7435 12.2974 32.8145C12.4688 32.8855 12.6524 32.922 12.8379 32.922C13.0234 32.922 13.2071 32.8855 13.3784 32.8145C13.5498 32.7435 13.7055 32.6395 13.8367 32.5083L21.3308 25L25.9917 29.6608C26.5442 30.2133 27.4367 30.2133 27.9892 29.6608L35.9083 21.7558L37.9483 23.7958C38.0473 23.8929 38.1727 23.9588 38.3087 23.9853C38.4448 24.0118 38.5857 23.9978 38.7139 23.945C38.8421 23.8922 38.952 23.803 39.03 23.6883C39.108 23.5737 39.1505 23.4386 39.1525 23.3V17.2083C39.1564 17.1155 39.1412 17.0228 39.1079 16.936C39.0746 16.8493 39.0238 16.7703 38.9588 16.7039C38.8937 16.6375 38.8157 16.5852 38.7297 16.5501C38.6436 16.515 38.5513 16.498 38.4583 16.5H32.3808C32.241 16.4992 32.104 16.5398 31.9872 16.6167C31.8704 16.6936 31.779 16.8033 31.7244 16.9321C31.6699 17.0608 31.6547 17.2029 31.6807 17.3403C31.7068 17.4777 31.7729 17.6043 31.8708 17.7042Z" fill="white"/>
</svg>
