<svg width="50" height="50" viewBox="0 0 50 50" fill="none" xmlns="http://www.w3.org/2000/svg">
<rect width="50" height="50" rx="25" fill="#3F46F9"/>
<path d="M15.625 21.25C16.6605 21.25 17.5 20.4105 17.5 19.375C17.5 18.3395 16.6605 17.5 15.625 17.5C14.5895 17.5 13.75 18.3395 13.75 19.375C13.75 20.4105 14.5895 21.25 15.625 21.25Z" fill="white"/>
<path d="M15.625 26.875C16.6605 26.875 17.5 26.0355 17.5 25C17.5 23.9645 16.6605 23.125 15.625 23.125C14.5895 23.125 13.75 23.9645 13.75 25C13.75 26.0355 14.5895 26.875 15.625 26.875Z" fill="white"/>
<path d="M15.625 32.5C16.6605 32.5 17.5 31.6605 17.5 30.625C17.5 29.5895 16.6605 28.75 15.625 28.75C14.5895 28.75 13.75 29.5895 13.75 30.625C13.75 31.6605 14.5895 32.5 15.625 32.5Z" fill="white"/>
<path d="M35.3125 20.3125H22.1875C21.6625 20.3125 21.25 19.9 21.25 19.375C21.25 18.85 21.6625 18.4375 22.1875 18.4375H35.3125C35.8375 18.4375 36.25 18.85 36.25 19.375C36.25 19.9 35.8375 20.3125 35.3125 20.3125ZM35.3125 25.9375H22.1875C21.6625 25.9375 21.25 25.525 21.25 25C21.25 24.475 21.6625 24.0625 22.1875 24.0625H35.3125C35.8375 24.0625 36.25 24.475 36.25 25C36.25 25.525 35.8375 25.9375 35.3125 25.9375ZM35.3125 31.5625H22.1875C21.6625 31.5625 21.25 31.15 21.25 30.625C21.25 30.1 21.6625 29.6875 22.1875 29.6875H35.3125C35.8375 29.6875 36.25 30.1 36.25 30.625C36.25 31.15 35.8375 31.5625 35.3125 31.5625Z" fill="white"/>
</svg>
